<?xml version="1.0" encoding="UTF-8" standalone="no"?>
<!-- Created with Inkscape (http://www.inkscape.org/) -->

<svg
   width="512"
   height="512"
   viewBox="0 0 512 512"
   version="1.1"
   id="svg1"
   inkscape:version="1.4.4 (dcaf3e7d9e, 2026-05-05)"
   sodipodi:docname="de.scrylab.ScryLab.svg"
   inkscape:export-filename="../resources/icons/app_icon.png"
   inkscape:export-xdpi="96"
   inkscape:export-ydpi="96"
   xml:space="preserve"
   xmlns:inkscape="http://www.inkscape.org/namespaces/inkscape"
   xmlns:sodipodi="http://sodipodi.sourceforge.net/DTD/sodipodi-0.dtd"
   xmlns:xlink="http://www.w3.org/1999/xlink"
   xmlns="http://www.w3.org/2000/svg"
   xmlns:svg="http://www.w3.org/2000/svg"><sodipodi:namedview
     id="namedview1"
     pagecolor="#ffffff"
     bordercolor="#000000"
     borderopacity="0.25"
     inkscape:showpageshadow="2"
     inkscape:pageopacity="0.0"
     inkscape:pagecheckerboard="false"
     inkscape:deskcolor="#d1d1d1"
     inkscape:document-units="px"
     showborder="true"
     showgrid="true"
     inkscape:zoom="0.75945453"
     inkscape:cx="5.2669381"
     inkscape:cy="202.77712"
     inkscape:window-width="1920"
     inkscape:window-height="1128"
     inkscape:window-x="0"
     inkscape:window-y="0"
     inkscape:window-maximized="1"
     inkscape:current-layer="layer1"
     inkscape:clip-to-page="false"><inkscape:grid
       id="grid1"
       units="px"
       originx="0"
       originy="0"
       spacingx="1"
       spacingy="1"
       empcolor="#0099e5"
       empopacity="0.30196078"
       color="#0099e5"
       opacity="0.14901961"
       empspacing="4"
       enabled="true"
       visible="true" /></sodipodi:namedview><defs
     id="defs1"><linearGradient
       id="linearGradient2"
       inkscape:collect="always"><stop
         style="stop-color:#4812ab;stop-opacity:1;"
         offset="0"
         id="stop2" /><stop
         style="stop-color:#4812ab;stop-opacity:0;"
         offset="1"
         id="stop7" /></linearGradient><linearGradient
       id="linearGradient5"
       inkscape:collect="always"><stop
         style="stop-color:#a581f7;stop-opacity:1;"
         offset="0"
         id="stop5" /><stop
         style="stop-color:#d2c2fb;stop-opacity:1;"
         offset="1"
         id="stop6" /></linearGradient><linearGradient
       id="linearGradient3"
       inkscape:collect="always"><stop
         style="stop-color:#0b0426;stop-opacity:1;"
         offset="0"
         id="stop3" /><stop
         style="stop-color:#4c0be1;stop-opacity:1;"
         offset="1"
         id="stop4" /></linearGradient><inkscape:path-effect
       effect="fillet_chamfer"
       id="path-effect33"
       is_visible="true"
       lpeversion="1"
       nodesatellites_param="F,0,0,1,0,0,0,1 @ F,0,0,1,0,0,0,1 @ F,0,0,1,0,1.3904844,0,1 @ F,0,0,1,0,0,0,1 @ F,0,0,1,0,1.3904008,0,1 @ F,0,0,1,0,0,0,1"
       radius="0"
       unit="px"
       method="auto"
       mode="F"
       chamfer_steps="1"
       flexible="false"
       use_knot_distance="true"
       apply_no_radius="true"
       apply_with_radius="true"
       only_selected="false"
       hide_knots="false" /><inkscape:path-effect
       effect="fillet_chamfer"
       id="path-effect32"
       is_visible="true"
       lpeversion="1"
       nodesatellites_param="F,0,0,1,0,0,0,1 @ F,0,0,1,0,0,0,1 @ F,0,0,1,0,0,0,1 @ F,0,0,1,0,0,0,1 @ F,0,0,1,0,0,0,1 @ F,0,0,1,0,0,0,1"
       radius="0"
       unit="px"
       method="auto"
       mode="F"
       chamfer_steps="1"
       flexible="false"
       use_knot_distance="true"
       apply_no_radius="true"
       apply_with_radius="true"
       only_selected="false"
       hide_knots="false" /><inkscape:path-effect
       effect="fillet_chamfer"
       id="path-effect31"
       is_visible="true"
       lpeversion="1"
       nodesatellites_param="F,0,0,1,0,0,0,1 @ F,0,0,1,0,0,0,1 @ F,0,0,1,0,0,0,1 @ F,0,0,1,0,0,0,1 @ F,0,0,1,0,0,0,1"
       radius="0"
       unit="px"
       method="auto"
       mode="F"
       chamfer_steps="1"
       flexible="false"
       use_knot_distance="true"
       apply_no_radius="true"
       apply_with_radius="true"
       only_selected="false"
       hide_knots="false" /><linearGradient
       id="linearGradient24"
       inkscape:collect="always"><stop
         style="stop-color:#0b0426;stop-opacity:1;"
         offset="0"
         id="stop24" /><stop
         style="stop-color:#4c0be1;stop-opacity:1;"
         offset="1"
         id="stop25" /></linearGradient><linearGradient
       inkscape:collect="always"
       xlink:href="#linearGradient24"
       id="linearGradient25"
       x1="19.661026"
       y1="14.712938"
       x2="24.338974"
       y2="-0.58793807"
       gradientUnits="userSpaceOnUse"
       gradientTransform="translate(-14.000001,0.4375)" /><linearGradient
       inkscape:collect="always"
       xlink:href="#linearGradient3"
       id="linearGradient4"
       x1="3.3496392"
       y1="14.141403"
       x2="12.65036"
       y2="0.8585968"
       gradientUnits="userSpaceOnUse" /><linearGradient
       inkscape:collect="always"
       xlink:href="#linearGradient5"
       id="linearGradient6"
       x1="4.0693302"
       y1="14.591117"
       x2="11.93067"
       y2="0.40888503"
       gradientUnits="userSpaceOnUse" /><linearGradient
       inkscape:collect="always"
       xlink:href="#linearGradient2"
       id="linearGradient7"
       x1="143.37549"
       y1="125.96439"
       x2="354.80569"
       y2="451.53836"
       gradientUnits="userSpaceOnUse" /></defs><path
     id="path23"
     style="display:none;fill:url(#linearGradient25);stroke-width:5;stroke-miterlimit:2;paint-order:stroke fill markers"
     d="m 7.9999991,0 c -4.418278,0 -8,3.581722 -8,8 -1.2812214e-5,2.910303 1.580451,5.591033 4.126953,7 h 7.7460939 c 2.546502,-1.408967 4.126966,-4.089697 4.126953,-7 0,-4.418278 -3.581722,-7.999999944771525 -7.9999999,-8 z"
     inkscape:path-effect="#path-effect31"
     inkscape:original-d="m 7.9999991,0 a 8,8 0 0 0 -8,8 8,8 0 0 0 4.126953,7 H 11.873046 A 8,8 0 0 0 15.999999,8 8,8 0 0 0 7.9999991,0 Z" /><g
     inkscape:label="Ebene 1"
     inkscape:groupmode="layer"
     id="layer1"><path
       id="path1"
       style="display:inline;fill:url(#linearGradient4);fill-opacity:1;stroke:url(#linearGradient6);stroke-width:0.54079909;stroke-linecap:butt;stroke-linejoin:miter;stroke-miterlimit:2;stroke-dasharray:none;stroke-opacity:1;paint-order:normal"
       d="M 7.9999991,0 C 3.5817215,4.5711765e-7 1.7227795e-8,3.5817224 1.2768476e-7,8 -3.9853297e-4,10.231302 0.92935075,12.338393 2.527442,13.836941 3.0869247,14.361573 4.2354381,14.786012 4.9998563,14.858792 5.9877585,14.95285 6.9922395,15.000227 7.9999991,15 c 1.0077909,2.27e-4 2.0123029,-0.04715 3.0002349,-0.141217 0.764367,-0.07278 1.912804,-0.497188 2.472256,-1.02178 C 15.070622,12.338452 16.000397,10.231333 15.999999,8 15.999999,3.581722 12.418277,-5.5228477e-8 7.9999991,0 Z"
       inkscape:label="Hinten"
       inkscape:path-effect="#path-effect33"
       inkscape:original-d="M 7.9999991,0 A 7.9999998,7.9999998 0 0 0 1.2768476e-7,8 7.9999998,7.9999998 0 0 0 3.6191401,14.695312 16,7.9999998 0 0 0 7.9999991,15 16,7.9999998 0 0 0 12.380858,14.695312 7.9999998,7.9999998 0 0 0 15.999999,8 7.9999998,7.9999998 0 0 0 7.9999991,0 Z"
       transform="matrix(29.727752,0,0,29.444623,18.178,35.165341)" /><path
       d="m 3.7714844,2.421875 c 0.683736,0.3088974 1.3566248,0.6802267 2.0117187,1.1640625 1.4423116,1.0652548 2.3630255,2.1781915 3.0410157,3.0039062 0.6779901,0.8257148 1.1144622,1.3631903 1.9765622,2.0097657 0.907637,0.6807273 2.4,1.1445063 3.914063,1.3769531 A 7,7 0 0 0 15,8 7,7 0 0 0 8,1 7,7 0 0 0 3.7714844,2.421875 Z"
       style="display:none;fill:#8a5cf5;fill-opacity:1;stroke-width:3.5;stroke-miterlimit:2;paint-order:stroke fill markers"
       id="path6" /><path
       id="path2"
       style="baseline-shift:baseline;display:none;overflow:visible;opacity:1;vector-effect:none;fill:#6c32f1;fill-opacity:1;stroke-miterlimit:2;paint-order:stroke fill markers;enable-background:accumulate;stop-color:#000000;stop-opacity:1"
       d="M 2.9277344,3.1679688 C 1.9889414,4.1533473 1.3347175,5.4131505 1.0976562,6.8183594 1.9806139,7.1841266 2.673826,7.5069539 2.8125,7.609375 3.7730764,8.3188323 4.2860808,8.944152 4.9589844,9.7636719 5.631888,10.583192 6.4638872,11.596939 7.8007812,12.599609 c 0.7320589,0.549044 1.5111698,0.979887 2.3085938,1.31836 0.62217,-0.04714 1.239046,-0.112959 1.847656,-0.19336 1.036938,-0.718937 1.853527,-1.683137 2.378907,-2.789062 C 12.793424,10.681508 11.254917,10.192165 10.199219,9.4003906 9.2421593,8.6825962 8.727754,8.0490851 8.0507812,7.2246094 7.3738083,6.4001336 6.5334645,5.3847203 5.1875,4.390625 4.5167396,3.8952183 3.7460372,3.505502 2.9277344,3.1679688 Z" /><path
       d="m 119.20589,115.39044 c 22.2544,10.47941 43.92692,23.03204 63.86821,38.58855 40.42343,31.53494 65.17865,63.52955 84.36411,87.01116 19.18547,23.48161 32.40567,38.9191 59.51355,56.81894 15.81559,10.4433 71.43194,25.82573 127.56224,34.79296 A 208.09425,206.11237 0 0 0 464.09424,270.72231 208.09425,206.11237 0 0 0 255.99999,64.609964 208.09425,206.11237 0 0 0 119.20589,115.39044 Z"
       style="display:inline;fill:#8a5cf5;fill-opacity:1;stroke-width:88.7573;stroke-miterlimit:2;paint-order:stroke fill markers"
       id="path7"
       inkscape:label="Oben" /><path
       id="path28"
       style="display:inline;fill:#d7bffb;fill-opacity:1;stroke-width:34.1627;stroke-miterlimit:2;paint-order:stroke fill markers"
       d="m 387.22461,140.74745 c 23.21884,22.99769 32.6301,50.96265 21.0207,62.46148 -11.60939,11.49886 -32.61737,-6.28113 -55.83621,-29.27879 -23.21879,-22.9977 -39.85597,-42.50432 -28.24656,-54.00318 11.60943,-11.49884 39.84327,-2.17715 63.06207,20.82049 z"
       sodipodi:nodetypes="sssss" /><path
       d="M 7.6933594,5.2851562 A 3.5,3 45 0 1 7.4472656,1.0214844 7,7 0 0 0 3.7714844,2.421875 c 0.683736,0.3088974 1.3566248,0.6802267 2.0117187,1.1640625 0.7719951,0.570176 1.3942636,1.1530774 1.9101563,1.6992187 z"
       style="display:none;fill:#7743f4;fill-opacity:1;stroke-width:3.5;stroke-miterlimit:2;paint-order:stroke fill markers"
       id="path34" /><path
       d="M 443.19193,360.78149 C 387.92441,351.92506 333.61581,337.5967 310.46218,322.30793 280.0122,302.20128 263.84331,283.39152 244.32954,259.50808 224.81576,235.6246 202.18274,206.4206 164.66845,177.15512 144.72662,161.59821 121.33469,148.80635 96.793952,137.99151 a 208.09425,206.11237 0 0 0 -41.80464,79.36244 c 23.030121,9.85638 42.917547,20.10562 54.520218,29.15705 28.78693,22.45714 44.99519,43.46178 65.49396,68.55078 20.49877,25.08902 45.51367,54.01557 85.98982,80.7427 32.78152,21.64618 72.8235,34.8828 114.38217,43.70685 a 208.09425,206.11237 0 0 0 67.81645,-78.72984 z"
       style="fill:url(#linearGradient7);fill-opacity:1;stroke:none;stroke-width:1.84911;stroke-miterlimit:2;stroke-dasharray:none;stroke-opacity:1;paint-order:stroke fill markers"
       id="path15" /><path
       style="display:none;fill:none;fill-opacity:1;stroke:#6c32f1;stroke-width:3;stroke-miterlimit:2;stroke-dasharray:none;stroke-opacity:1;paint-order:stroke fill markers"
       d="m -4,3 c 0,0 5.7175795,1.2023268 8,3 2.2302795,1.7566061 2.6141442,3.4094295 5,5 3,2 11,2 11,2"
       id="path12"
       sodipodi:nodetypes="cssc"
       inkscape:label="backup" /><path
       d="m 255.99999,64.609964 a 208.09425,206.11237 0 0 0 -136.7941,50.780476 c 22.2544,10.47941 43.92692,23.03204 63.86821,38.58855 35.06932,27.35814 58.33157,55.0433 76.40961,77.23463 A 124.3519,91.146422 55.396696 0 1 273.12829,89.453866 124.3519,91.146422 55.396696 0 1 337.11263,80.885008 208.09425,206.11237 0 0 0 255.99999,64.609964 Z"
       style="display:inline;fill:#7946f4;fill-opacity:1;stroke-width:88.7573;stroke-miterlimit:2;paint-order:stroke fill markers"
       id="path19" /><path
       id="path17"
       style="display:none;fill:#c6b4f9;stroke-width:4.86086;stroke-miterlimit:2;paint-order:stroke fill markers"
       transform="rotate(-33.761206)"
       d="M 9.1802778,10.508663 A 3.0753131,4.2105088 0 0 1 6.1049647,14.719172 3.0753131,4.2105088 0 0 1 3.0296516,10.508663 3.0753131,4.2105088 0 0 1 6.1049647,6.2981544 3.0753131,4.2105088 0 0 1 9.1802778,10.508663 Z" /><g
       inkscape:label="Layer 1"
       id="layer1-7"
       transform="matrix(15.74826,0,0,15.74826,-519.01139,-2194.0355)"
       style="display:none"><circle
         cx="49.212509"
         cy="155.575"
         r="15.743801"
         id="circle2892"
         style="display:inline;opacity:0.2;fill:none;fill-opacity:1;stroke:currentColor;stroke-width:0.261937;stroke-linecap:butt;stroke-linejoin:miter;stroke-miterlimit:4;stroke-dasharray:none;stroke-dashoffset:0;stroke-opacity:1;marker:none;marker-start:none;marker-mid:none;marker-end:none;paint-order:normal;enable-background:new" /><rect
         ry="2.096508"
         rx="2.096508"
         y="141.94769"
         x="35.585205"
         height="27.254602"
         width="27.254602"
         id="rect2896"
         style="display:inline;opacity:0.2;fill:none;fill-opacity:1;stroke:currentColor;stroke-width:0.261937;stroke-linecap:butt;stroke-linejoin:miter;stroke-miterlimit:4;stroke-dasharray:none;stroke-dashoffset:0;stroke-opacity:1;marker:none;marker-start:none;marker-mid:none;marker-end:none;paint-order:normal;enable-background:new" /></g></g></svg>
